<svg xmlns="http://www.w3.org/2000/svg" xmlns:xlink="http://www.w3.org/1999/xlink" contentStyleType="text/css" height="657px" preserveAspectRatio="none" style="width:624px;height:657px;background:#FFFFFF;" version="1.1" viewBox="0 0 624 657" width="624px" zoomAndPan="magnify"><defs/><g><!--class Usuario--><g id="elem_Usuario"><rect codeLine="3" fill="#F1F1F1" height="26.2969" id="Usuario" rx="2.5" ry="2.5" style="stroke:#181818;stroke-width:0.5;" width="59.2041" x="208" y="7"/><text fill="#000000" font-family="sans-serif" font-size="14" lengthAdjust="spacing" textLength="53.2041" x="211" y="24.9951">Usuario</text></g><!--class Dispositivo--><g id="elem_Dispositivo"><rect codeLine="6" fill="#F1F1F1" height="26.2969" id="Dispositivo" rx="2.5" ry="2.5" style="stroke:#181818;stroke-width:0.5;" width="82.8291" x="7" y="110"/><text fill="#000000" font-family="sans-serif" font-size="14" lengthAdjust="spacing" textLength="76.8291" x="10" y="127.9951">Dispositivo</text></g><!--class Perfil--><g id="elem_Perfil"><rect codeLine="9" fill="#F1F1F1" height="26.2969" id="Perfil" rx="2.5" ry="2.5" style="stroke:#181818;stroke-width:0.5;" width="41.5195" x="125.5" y="110"/><text fill="#000000" font-family="sans-serif" font-size="14" lengthAdjust="spacing" textLength="35.5195" x="128.5" y="127.9951">Perfil</text></g><!--class Viewer--><g id="elem_Viewer"><rect codeLine="12" fill="#F1F1F1" height="26.2969" id="Viewer" rx="2.5" ry="2.5" style="stroke:#181818;stroke-width:0.5;" width="53.8994" x="269.5" y="213"/><text fill="#000000" font-family="sans-serif" font-size="14" lengthAdjust="spacing" textLength="47.8994" x="272.5" y="230.9951">Viewer</text></g><!--class CreadorDeContenido--><g id="elem_CreadorDeContenido"><rect codeLine="15" fill="#F1F1F1" height="26.2969" id="CreadorDeContenido" rx="2.5" ry="2.5" style="stroke:#181818;stroke-width:0.5;" width="152.8564" x="339" y="110"/><text fill="#000000" font-family="sans-serif" font-size="14" lengthAdjust="spacing" textLength="146.8564" x="342" y="127.9951">CreadorDeContenido</text></g><!--class Condiciones--><g id="elem_Condiciones"><rect codeLine="18" fill="#F1F1F1" height="26.2969" id="Condiciones" rx="2.5" ry="2.5" style="stroke:#181818;stroke-width:0.5;" width="90.9229" x="527" y="110"/><text fill="#000000" font-family="sans-serif" font-size="14" lengthAdjust="spacing" textLength="84.9229" x="530" y="127.9951">Condiciones</text></g><!--class Categor?a--><g id="elem_Categor&#237;a"><rect codeLine="21" fill="#F1F1F1" height="26.2969" id="Categor&#237;a" rx="2.5" ry="2.5" style="stroke:#181818;stroke-width:0.5;" width="74.1338" x="377.5" y="522"/><text fill="#000000" font-family="sans-serif" font-size="14" lengthAdjust="spacing" textLength="68.1338" x="380.5" y="539.9951">Categor&#237;a</text></g><!--class Subscripci?n--><g id="elem_Subscripci&#243;n"><rect codeLine="24" fill="#F1F1F1" height="26.2969" id="Subscripci&#243;n" rx="2.5" ry="2.5" style="stroke:#181818;stroke-width:0.5;" width="95.1953" x="249" y="316"/><text fill="#000000" font-family="sans-serif" font-size="14" lengthAdjust="spacing" textLength="89.1953" x="252" y="333.9951">Subscripci&#243;n</text></g><!--class Recomendaci?n--><g id="elem_Recomendaci&#243;n"><rect codeLine="27" fill="#F1F1F1" height="26.2969" id="Recomendaci&#243;n" rx="2.5" ry="2.5" style="stroke:#181818;stroke-width:0.5;" width="118.2188" x="242.5" y="419"/><text fill="#000000" font-family="sans-serif" font-size="14" lengthAdjust="spacing" textLength="112.2188" x="245.5" y="436.9951">Recomendaci&#243;n</text></g><!--class Contenido--><g id="elem_Contenido"><rect codeLine="30" fill="#F1F1F1" height="26.2969" id="Contenido" rx="2.5" ry="2.5" style="stroke:#181818;stroke-width:0.5;" width="77.5313" x="435.5" y="625"/><text fill="#000000" font-family="sans-serif" font-size="14" lengthAdjust="spacing" textLength="71.5313" x="438.5" y="642.9951">Contenido</text></g><!--link Usuario to Dispositivo--><g id="link_Usuario_Dispositivo"><path codeLine="33" d="M207.77,27.75 C182.18,34.36 144.84,45.94 115.5,63 C93.53,75.78 76.337,92.0448 63.857,105.2148 " fill="none" id="Usuario-to-Dispositivo" style="stroke:#181818;stroke-width:1.0;"/><polygon fill="#181818" points="59.73,109.57,68.824,105.7886,63.1692,105.9407,63.0171,100.2859,59.73,109.57" style="stroke:#181818;stroke-width:1.0;"/><text fill="#000000" font-family="sans-serif" font-size="13" lengthAdjust="spacing" textLength="22.9785" x="116.5" y="76.0669">usa</text></g><!--link Usuario to Perfil--><g id="link_Usuario_Perfil"><path codeLine="34" d="M207.87,28.37 C189.53,34.53 167.14,45.24 154.5,63 C144.67,76.81 143.7301,91.1547 144.6301,103.9847 " fill="none" id="Usuario-to-Perfil" style="stroke:#181818;stroke-width:1.0;"/><polygon fill="#181818" points="145.05,109.97,148.4104,100.7122,144.7001,104.9823,140.43,101.272,145.05,109.97" style="stroke:#181818;stroke-width:1.0;"/><text fill="#000000" font-family="sans-serif" font-size="13" lengthAdjust="spacing" textLength="55.8911" x="155.5" y="76.0669">gestiona</text></g><!--link Usuario to Condiciones--><g id="link_Usuario_Condiciones"><path codeLine="35" d="M267.02,27.05 C301.86,34.43 361.38,47.82 411.5,63 C458.08,77.11 505.2634,95.0461 537.3034,107.7661 " fill="none" id="Usuario-to-Condiciones" style="stroke:#181818;stroke-width:1.0;"/><polygon fill="#181818" points="542.88,109.98,535.9911,102.9414,538.2328,108.1351,533.0391,110.3768,542.88,109.98" style="stroke:#181818;stroke-width:1.0;"/><text fill="#000000" font-family="sans-serif" font-size="13" lengthAdjust="spacing" textLength="44.4272" x="462.5" y="76.0669">acepta</text></g><!--link Usuario to Viewer--><g id="link_Usuario_Viewer"><path codeLine="36" d="M238.31,33.33 C239.95,54.66 244.51,99.63 255.5,136 C264.16,164.66 277.3945,190.7249 286.6345,207.4949 " fill="none" id="Usuario-to-Viewer" style="stroke:#181818;stroke-width:1.0;"/><polygon fill="#181818" points="289.53,212.75,288.6902,202.937,287.1171,208.3707,281.6834,206.7977,289.53,212.75" style="stroke:#181818;stroke-width:1.0;"/><text fill="#000000" font-family="sans-serif" font-size="13" lengthAdjust="spacing" textLength="64.9873" x="256.5" y="127.5669">puede ser</text></g><!--link Usuario to CreadorDeContenido--><g id="link_Usuario_CreadorDeContenido"><path codeLine="37" d="M258.97,33.18 C293.28,52.65 354.8313,87.5795 389.0113,106.9695 " fill="none" id="Usuario-to-CreadorDeContenido" style="stroke:#181818;stroke-width:1.0;"/><polygon fill="#181818" points="394.23,109.93,388.3756,102.01,389.8811,107.4629,384.4282,108.9683,394.23,109.93" style="stroke:#181818;stroke-width:1.0;"/><text fill="#000000" font-family="sans-serif" font-size="13" lengthAdjust="spacing" textLength="64.9873" x="338.5" y="76.0669">puede ser</text></g><!--link Viewer to Subscripci?n--><g id="link_Viewer_Subscripci&#243;n"><path codeLine="38" d="M296.5,239.38 C296.5,258.87 296.5,290.47 296.5,309.83 " fill="none" id="Viewer-to-Subscripci&#243;n" style="stroke:#181818;stroke-width:1.0;"/><polygon fill="#181818" points="296.5,315.83,300.5,306.83,296.5,310.83,292.5,306.83,296.5,315.83" style="stroke:#181818;stroke-width:1.0;"/><text fill="#000000" font-family="sans-serif" font-size="13" lengthAdjust="spacing" textLength="38.9746" x="297.5" y="282.0669">posee</text></g><!--link Subscripci?n to Recomendaci?n--><g id="link_Subscripci&#243;n_Recomendaci&#243;n"><path codeLine="39" d="M297.11,342.38 C298.08,361.87 299.6428,393.4774 300.6028,412.8374 " fill="none" id="Subscripci&#243;n-to-Recomendaci&#243;n" style="stroke:#181818;stroke-width:1.0;"/><polygon fill="#181818" points="300.9,418.83,304.4494,409.6429,300.6524,413.8361,296.4592,410.0391,300.9,418.83" style="stroke:#181818;stroke-width:1.0;"/><text fill="#000000" font-family="sans-serif" font-size="13" lengthAdjust="spacing" textLength="45.7983" x="300.5" y="385.0669">genera</text></g><!--link Recomendaci?n to Categor?a--><g id="link_Recomendaci&#243;n_Categor&#237;a"><path codeLine="40" d="M301.55,445.28 C302.25,458.32 305.24,478.83 316.5,492 C331.9,510.01 350.6383,518.8359 371.2883,524.8359 " fill="none" id="Recomendaci&#243;n-to-Categor&#237;a" style="stroke:#181818;stroke-width:1.0;"/><polygon fill="#181818" points="377.05,526.51,369.5235,520.1577,372.2486,525.1149,367.2914,527.84,377.05,526.51" style="stroke:#181818;stroke-width:1.0;"/><text fill="#000000" font-family="sans-serif" font-size="13" lengthAdjust="spacing" textLength="70.2305" x="317.5" y="488.0669">se basa en</text></g><!--link Categor?a to Contenido--><g id="link_Categor&#237;a_Contenido"><path codeLine="41" d="M421.86,548.38 C433.44,567.87 452.7058,600.3115 464.2058,619.6715 " fill="none" id="Categor&#237;a-to-Contenido" style="stroke:#181818;stroke-width:1.0;"/><polygon fill="#181818" points="467.27,624.83,466.1127,615.0494,464.7165,620.5312,459.2346,619.135,467.27,624.83" style="stroke:#181818;stroke-width:1.0;"/><text fill="#000000" font-family="sans-serif" font-size="13" lengthAdjust="spacing" textLength="46.0205" x="449.5" y="591.0669">agrupa</text></g><!--link CreadorDeContenido to Contenido--><g id="link_CreadorDeContenido_Contenido"><path codeLine="42" d="M449.89,136.05 C485.35,150.92 535.5,179.93 535.5,225 C535.5,225 535.5,225 535.5,536 C535.5,572.46 510.2858,602.8408 492.3158,620.5308 " fill="none" id="CreadorDeContenido-to-Contenido" style="stroke:#181818;stroke-width:1.0;"/><polygon fill="#181818" points="488.04,624.74,497.2599,621.2768,491.6032,621.2323,491.6476,615.5757,488.04,624.74" style="stroke:#181818;stroke-width:1.0;"/><text fill="#000000" font-family="sans-serif" font-size="13" lengthAdjust="spacing" textLength="28.4565" x="536.5" y="385.0669">crea</text></g><!--link CreadorDeContenido to Categor?a--><g id="link_CreadorDeContenido_Categor&#237;a"><path codeLine="43" d="M415.3,136.13 C415.01,155.09 414.5,192.91 414.5,225 C414.5,225 414.5,225 414.5,433 C414.5,465.09 414.5,496.91 414.5,515.87 " fill="none" id="CreadorDeContenido-to-Categor&#237;a" style="stroke:#181818;stroke-width:1.0;"/><polygon fill="#181818" points="414.5,521.87,418.5,512.87,414.5,516.87,410.5,512.87,414.5,521.87" style="stroke:#181818;stroke-width:1.0;"/><text fill="#000000" font-family="sans-serif" font-size="13" lengthAdjust="spacing" textLength="66.5742" x="415.5" y="333.5669">trabaja en</text></g><!--link CreadorDeContenido to Viewer--><g id="link_CreadorDeContenido_Viewer"><path codeLine="44" d="M338.77,134.77 C321.12,141.01 304.36,150.77 293.5,166 C283.73,179.69 282.2182,182.9182 286.3382,195.7782 " fill="none" id="CreadorDeContenido-to-Viewer" style="stroke:#181818;stroke-width:1.0;"/><polygon fill="none" points="291.83,212.92,292.0522,193.9476,280.6243,197.6088,291.83,212.92" style="stroke:#181818;stroke-width:1.0;"/><text fill="#000000" font-family="sans-serif" font-size="13" lengthAdjust="spacing" textLength="93.3423" x="294.5" y="179.0669">es tambi&#233;n un</text></g><!--SRC=[TP0nJiGm44Lxdy9AlnUWeDaz0091Ft66xA34jcRiHGWu40KLHyZ5S5P6QpjB-__p-Fz_f04rpZwywHdd7bdKSPKCiPbGcGb4zAD4O7BwNNsgB1r8l1CATAhaE-HdcahbYV0LkLJsZ30uFk3UsO2MXkf24WSov2nA9KF0qV7o3QNw47inJDxGycDBunwDcz4Ei76QJ_-gxNQtLQSRtKM1hl9pkMIDA255RFmoUeB0e0yDajT8he-OPXRaviPsd1hE5rQsRhzYJX0xLUihsSnnRc2HKxZ6EKUuJ9r0GTs3W4RRgSB9VIyHOUJeqy4h1JQiISp_PFLzOEZX9Nz_xS57EMeQFi3Sq_9bTRJTBm00]--></g></svg>