<svg xmlns="http://www.w3.org/2000/svg" xmlns:xlink="http://www.w3.org/1999/xlink" contentStyleType="text/css" height="581px" preserveAspectRatio="none" style="width:438px;height:581px;background:#FFFFFF;" version="1.1" viewBox="0 0 438 581" width="438px" zoomAndPan="magnify"><defs/><g><ellipse cx="141.5" cy="16" fill="#222222" rx="10" ry="10" style="stroke:#222222;stroke-width:1.0;"/><g id="Desconocido"><rect fill="#F1F1F1" height="50" rx="12.5" ry="12.5" style="stroke:#181818;stroke-width:0.5;" width="109.4277" x="87" y="87"/><line style="stroke:#181818;stroke-width:0.5;" x1="87" x2="196.4277" y1="113.2969" y2="113.2969"/><text fill="#000000" font-family="sans-serif" font-size="14" lengthAdjust="spacing" textLength="89.4277" x="97" y="104.9951">Desconocido</text></g><g id="elem_Turno"><polygon fill="#F1F1F1" points="141.5,214,153.5,226,141.5,238,129.5,226,141.5,214" style="stroke:#181818;stroke-width:0.5;"/></g><g id="ViewerProceso"><rect fill="#F1F1F1" height="50" rx="12.5" ry="12.5" style="stroke:#181818;stroke-width:0.5;" width="122.833" x="7" y="315"/><line style="stroke:#181818;stroke-width:0.5;" x1="7" x2="129.833" y1="341.2969" y2="341.2969"/><text fill="#000000" font-family="sans-serif" font-size="14" lengthAdjust="spacing" textLength="102.833" x="17" y="332.9951">ViewerProceso</text></g><g id="Viewer"><rect fill="#F1F1F1" height="50" rx="12.5" ry="12.5" style="stroke:#181818;stroke-width:0.5;" width="67.8994" x="31.5" y="442"/><line style="stroke:#181818;stroke-width:0.5;" x1="31.5" x2="99.3994" y1="468.2969" y2="468.2969"/><text fill="#000000" font-family="sans-serif" font-size="14" lengthAdjust="spacing" textLength="47.8994" x="41.5" y="459.9951">Viewer</text></g><g id="EnProgreso"><rect fill="#F1F1F1" height="50" rx="12.5" ry="12.5" style="stroke:#181818;stroke-width:0.5;" width="99.5977" x="174.5" y="315"/><line style="stroke:#181818;stroke-width:0.5;" x1="174.5" x2="274.0977" y1="341.2969" y2="341.2969"/><text fill="#000000" font-family="sans-serif" font-size="14" lengthAdjust="spacing" textLength="79.5977" x="184.5" y="332.9951">EnProgreso</text></g><g id="CreadorDeContenido"><rect fill="#F1F1F1" height="50" rx="12.5" ry="12.5" style="stroke:#181818;stroke-width:0.5;" width="166.8564" x="142" y="442"/><line style="stroke:#181818;stroke-width:0.5;" x1="142" x2="308.8564" y1="468.2969" y2="468.2969"/><text fill="#000000" font-family="sans-serif" font-size="14" lengthAdjust="spacing" textLength="146.8564" x="152" y="459.9951">CreadorDeContenido</text></g><ellipse cx="141.5" cy="564" fill="none" rx="11" ry="11" style="stroke:#222222;stroke-width:1.0;"/><ellipse cx="141.5" cy="564" fill="#222222" rx="6" ry="6" style="stroke:#222222;stroke-width:1.0;"/><!--link *start* to Desconocido--><g id="link_*start*_Desconocido"><path d="M141.5,26.01 C141.5,39.89 141.5,60.97 141.5,80.84 " fill="none" id="*start*-to-Desconocido" style="stroke:#181818;stroke-width:1.0;"/><polygon fill="#181818" points="141.5,86.84,145.5,77.84,141.5,81.84,137.5,77.84,141.5,86.84" style="stroke:#181818;stroke-width:1.0;"/></g><!--link ViewerProceso to Viewer--><g id="link_ViewerProceso_Viewer"><path d="M67.92,365.1 C67.39,387.24 66.7538,413.8617 66.2238,435.9717 " fill="none" id="ViewerProceso-to-Viewer" style="stroke:#181818;stroke-width:1.0;"/><polygon fill="#181818" points="66.08,441.97,70.2945,433.0684,66.1998,436.9714,62.2968,432.8767,66.08,441.97" style="stroke:#181818;stroke-width:1.0;"/><text fill="#000000" font-family="sans-serif" font-size="13" lengthAdjust="spacing" textLength="141.9336" x="68.5" y="408.0669">si acepta Condiciones</text></g><!--link Desconocido to Turno--><g id="link_Desconocido_Turno"><path d="M141.5,137.03 C141.5,160.81 141.5,190.16 141.5,207.94 " fill="none" id="Desconocido-to-Turno" style="stroke:#181818;stroke-width:1.0;"/><polygon fill="#181818" points="141.5,213.94,145.5,204.94,141.5,208.94,137.5,204.94,141.5,213.94" style="stroke:#181818;stroke-width:1.0;"/><text fill="#000000" font-family="sans-serif" font-size="13" lengthAdjust="spacing" textLength="137.6489" x="142.5" y="180.0669">registra como viewer</text></g><!--link Turno to ViewerProceso--><g id="link_Turno_ViewerProceso"><path d="M137.15,233.67 C126.96,249.31 104.3957,283.9231 87.4857,309.8731 " fill="none" id="Turno-to-ViewerProceso" style="stroke:#181818;stroke-width:1.0;"/><polygon fill="#181818" points="84.21,314.9,92.4748,309.5435,86.9398,310.7109,85.7723,305.1758,84.21,314.9" style="stroke:#181818;stroke-width:1.0;"/><text fill="#000000" font-family="sans-serif" font-size="13" lengthAdjust="spacing" textLength="10.3848" x="115.5" y="281.0669">si</text></g><!--link Turno to EnProgreso--><g id="link_Turno_EnProgreso"><path d="M146.2,233.34 C157.59,248.71 183.5581,283.749 202.9181,309.879 " fill="none" id="Turno-to-EnProgreso" style="stroke:#181818;stroke-width:1.0;"/><polygon fill="#181818" points="206.49,314.7,204.3461,305.0873,203.5134,310.6825,197.9182,309.8498,206.49,314.7" style="stroke:#181818;stroke-width:1.0;"/><text fill="#000000" font-family="sans-serif" font-size="13" lengthAdjust="spacing" textLength="16.1929" x="184.5" y="281.0669">no</text></g><!--link EnProgreso to CreadorDeContenido--><g id="link_EnProgreso_CreadorDeContenido"><path d="M224.69,365.1 C224.87,387.24 225.0812,413.8602 225.2612,435.9702 " fill="none" id="EnProgreso-to-CreadorDeContenido" style="stroke:#181818;stroke-width:1.0;"/><polygon fill="#181818" points="225.31,441.97,229.2366,432.9377,225.2693,436.9702,221.2369,433.0029,225.31,441.97" style="stroke:#181818;stroke-width:1.0;"/><text fill="#000000" font-family="sans-serif" font-size="13" lengthAdjust="spacing" textLength="204.0645" x="226.5" y="408.0669">acepta condiciones y Completa</text></g><!--link CreadorDeContenido to *end*--><g id="link_CreadorDeContenido_*end*"><path d="M203.87,492.46 C185.59,513.14 164.4953,536.9959 152.4653,550.5959 " fill="none" id="CreadorDeContenido-to-*end*" style="stroke:#181818;stroke-width:1.0;"/><polygon fill="#181818" points="148.49,555.09,157.449,550.999,151.8028,551.3449,151.4569,545.6986,148.49,555.09" style="stroke:#181818;stroke-width:1.0;"/></g><!--link Viewer to *end*--><g id="link_Viewer_*end*"><path d="M85.07,492.46 C101.43,512.92 120.0631,536.1938 131.0731,549.9638 " fill="none" id="Viewer-to-*end*" style="stroke:#181818;stroke-width:1.0;"/><polygon fill="#181818" points="134.82,554.65,132.3238,545.1227,131.6976,550.7448,126.0755,550.1186,134.82,554.65" style="stroke:#181818;stroke-width:1.0;"/></g><!--SRC=[RO-n3eCm34HtVuLd97u08HRetg7gWXWYOz589KP9sggg-kzD88WCzUPxoTsvBmOiomOxTYH6I8y2uBpod4lu0Gm3tuGk3si4wvfkeecR1j9SDR_OdgqGErbzDmKhT1eLyU8Ljc96JLeCEyWpulFDkB8yQUUjGf9PyBbwmCOEqpscSZfZ9nFqoQuWI93j4RUMrIYsuz32iucvLUf5HozyXvRpSkSWmvylqQalXdJlllu0]--></g></svg>