<svg xmlns="http://www.w3.org/2000/svg" xmlns:xlink="http://www.w3.org/1999/xlink" contentStyleType="text/css" height="597px" preserveAspectRatio="none" style="width:438px;height:597px;background:#FFFFFF;" version="1.1" viewBox="0 0 438 597" width="438px" zoomAndPan="magnify"><defs/><g><ellipse cx="141.5" cy="16" fill="#222222" rx="10" ry="10" style="stroke:#222222;stroke-width:1.0;"/><g id="Desconocido"><rect fill="#F1F1F1" height="50" rx="12.5" ry="12.5" style="stroke:#181818;stroke-width:0.5;" width="109.4277" x="87" y="103"/><line style="stroke:#181818;stroke-width:0.5;" x1="87" x2="196.4277" y1="129.2969" y2="129.2969"/><text fill="#000000" font-family="sans-serif" font-size="14" lengthAdjust="spacing" textLength="89.4277" x="97" y="120.9951">Desconocido</text></g><g id="elem_Turno"><polygon fill="#F1F1F1" points="141.5,230,153.5,242,141.5,254,129.5,242,141.5,230" style="stroke:#181818;stroke-width:0.5;"/></g><g id="ViewerProceso"><rect fill="#F1F1F1" height="50" rx="12.5" ry="12.5" style="stroke:#181818;stroke-width:0.5;" width="122.833" x="7" y="331"/><line style="stroke:#181818;stroke-width:0.5;" x1="7" x2="129.833" y1="357.2969" y2="357.2969"/><text fill="#000000" font-family="sans-serif" font-size="14" lengthAdjust="spacing" textLength="102.833" x="17" y="348.9951">ViewerProceso</text></g><g id="Viewer"><rect fill="#F1F1F1" height="50" rx="12.5" ry="12.5" style="stroke:#181818;stroke-width:0.5;" width="67.8994" x="31.5" y="458"/><line style="stroke:#181818;stroke-width:0.5;" x1="31.5" x2="99.3994" y1="484.2969" y2="484.2969"/><text fill="#000000" font-family="sans-serif" font-size="14" lengthAdjust="spacing" textLength="47.8994" x="41.5" y="475.9951">Viewer</text></g><g id="EnProgreso"><rect fill="#F1F1F1" height="50" rx="12.5" ry="12.5" style="stroke:#181818;stroke-width:0.5;" width="99.5977" x="174.5" y="331"/><line style="stroke:#181818;stroke-width:0.5;" x1="174.5" x2="274.0977" y1="357.2969" y2="357.2969"/><text fill="#000000" font-family="sans-serif" font-size="14" lengthAdjust="spacing" textLength="79.5977" x="184.5" y="348.9951">EnProgreso</text></g><g id="CreadorDeContenido"><rect fill="#F1F1F1" height="50" rx="12.5" ry="12.5" style="stroke:#181818;stroke-width:0.5;" width="166.8564" x="142" y="458"/><line style="stroke:#181818;stroke-width:0.5;" x1="142" x2="308.8564" y1="484.2969" y2="484.2969"/><text fill="#000000" font-family="sans-serif" font-size="14" lengthAdjust="spacing" textLength="146.8564" x="152" y="475.9951">CreadorDeContenido</text></g><ellipse cx="141.5" cy="580" fill="none" rx="11" ry="11" style="stroke:#222222;stroke-width:1.0;"/><ellipse cx="141.5" cy="580" fill="#222222" rx="6" ry="6" style="stroke:#222222;stroke-width:1.0;"/><!--link *start* to Desconocido--><g id="link_*start*_Desconocido"><path d="M141.5,26 C141.5,42.63 141.5,72.66 141.5,96.87 " fill="none" id="*start*-to-Desconocido" style="stroke:#181818;stroke-width:1.0;"/><polygon fill="#181818" points="141.5,102.87,145.5,93.87,141.5,97.87,137.5,93.87,141.5,102.87" style="stroke:#181818;stroke-width:1.0;"/><text fill="#000000" font-family="sans-serif" font-size="13" lengthAdjust="spacing" textLength="78.4888" x="142.5" y="69.0669">sin registrar</text></g><!--link ViewerProceso to Viewer--><g id="link_ViewerProceso_Viewer"><path d="M67.92,381.1 C67.39,403.24 66.7538,429.8617 66.2238,451.9717 " fill="none" id="ViewerProceso-to-Viewer" style="stroke:#181818;stroke-width:1.0;"/><polygon fill="#181818" points="66.08,457.97,70.2945,449.0684,66.1998,452.9714,62.2968,448.8767,66.08,457.97" style="stroke:#181818;stroke-width:1.0;"/><text fill="#000000" font-family="sans-serif" font-size="13" lengthAdjust="spacing" textLength="141.9336" x="68.5" y="424.0669">si acepta Condiciones</text></g><!--link Desconocido to Turno--><g id="link_Desconocido_Turno"><path d="M141.5,153.03 C141.5,176.81 141.5,206.16 141.5,223.94 " fill="none" id="Desconocido-to-Turno" style="stroke:#181818;stroke-width:1.0;"/><polygon fill="#181818" points="141.5,229.94,145.5,220.94,141.5,224.94,137.5,220.94,141.5,229.94" style="stroke:#181818;stroke-width:1.0;"/><text fill="#000000" font-family="sans-serif" font-size="13" lengthAdjust="spacing" textLength="137.6489" x="142.5" y="196.0669">registra como viewer</text></g><!--link Turno to ViewerProceso--><g id="link_Turno_ViewerProceso"><path d="M137.15,249.67 C126.96,265.31 104.3957,299.9231 87.4857,325.8731 " fill="none" id="Turno-to-ViewerProceso" style="stroke:#181818;stroke-width:1.0;"/><polygon fill="#181818" points="84.21,330.9,92.4748,325.5435,86.9398,326.7109,85.7723,321.1758,84.21,330.9" style="stroke:#181818;stroke-width:1.0;"/><text fill="#000000" font-family="sans-serif" font-size="13" lengthAdjust="spacing" textLength="10.3848" x="115.5" y="297.0669">si</text></g><!--link Turno to EnProgreso--><g id="link_Turno_EnProgreso"><path d="M146.2,249.34 C157.59,264.71 183.5581,299.749 202.9181,325.879 " fill="none" id="Turno-to-EnProgreso" style="stroke:#181818;stroke-width:1.0;"/><polygon fill="#181818" points="206.49,330.7,204.3461,321.0873,203.5134,326.6825,197.9182,325.8498,206.49,330.7" style="stroke:#181818;stroke-width:1.0;"/><text fill="#000000" font-family="sans-serif" font-size="13" lengthAdjust="spacing" textLength="16.1929" x="184.5" y="297.0669">no</text></g><!--link EnProgreso to CreadorDeContenido--><g id="link_EnProgreso_CreadorDeContenido"><path d="M224.69,381.1 C224.87,403.24 225.0812,429.8602 225.2612,451.9702 " fill="none" id="EnProgreso-to-CreadorDeContenido" style="stroke:#181818;stroke-width:1.0;"/><polygon fill="#181818" points="225.31,457.97,229.2366,448.9377,225.2693,452.9702,221.2369,449.0029,225.31,457.97" style="stroke:#181818;stroke-width:1.0;"/><text fill="#000000" font-family="sans-serif" font-size="13" lengthAdjust="spacing" textLength="204.0645" x="226.5" y="424.0669">acepta condiciones y Completa</text></g><!--link CreadorDeContenido to *end*--><g id="link_CreadorDeContenido_*end*"><path d="M203.87,508.46 C185.59,529.14 164.4953,552.9959 152.4653,566.5959 " fill="none" id="CreadorDeContenido-to-*end*" style="stroke:#181818;stroke-width:1.0;"/><polygon fill="#181818" points="148.49,571.09,157.449,566.999,151.8028,567.3449,151.4569,561.6986,148.49,571.09" style="stroke:#181818;stroke-width:1.0;"/></g><!--link Viewer to *end*--><g id="link_Viewer_*end*"><path d="M85.07,508.46 C101.43,528.92 120.0631,552.1938 131.0731,565.9638 " fill="none" id="Viewer-to-*end*" style="stroke:#181818;stroke-width:1.0;"/><polygon fill="#181818" points="134.82,570.65,132.3238,561.1227,131.6976,566.7448,126.0755,566.1186,134.82,570.65" style="stroke:#181818;stroke-width:1.0;"/></g><!--SRC=[RO-n2eD038RtF4NcWYyWugBTEvGkud34O0_gHNBNbbBwxZrFHGlDblzF_dnf3YrcMOarUn8dP3l1t5k7ohtrGOq2-602_qoy0MF1Px7ETtM2HK5NiSHb2Qakbf-i9nLYB-d8h62Etg8X7eF1IbndoOfZ3_iBq_WScwyaI388Fb86pDuMkfw9x3llwABUQpAY1Bj-iYjbqudM72a2k_JxmaKR5xuYvJ3UEChmPsLAQWxjyk_QVW40]--></g></svg>