<svg xmlns="http://www.w3.org/2000/svg" xmlns:xlink="http://www.w3.org/1999/xlink" contentStyleType="text/css" height="576px" preserveAspectRatio="none" style="width:1010px;height:576px;background:#FFFFFF;" version="1.1" viewBox="0 0 1010 576" width="1010px" zoomAndPan="magnify"><defs/><g><!--class Dispositivo--><g id="elem_Dispositivo"><rect codeLine="4" fill="#F1F1F1" height="50.5938" id="Dispositivo" rx="2.5" ry="2.5" style="stroke:#181818;stroke-width:0.5;" width="82.8291" x="7" y="135"/><text fill="#000000" font-family="sans-serif" font-size="14" lengthAdjust="spacing" textLength="76.8291" x="10" y="152.9951">Dispositivo</text><line style="stroke:#181818;stroke-width:0.5;" x1="8" x2="88.8291" y1="161.2969" y2="161.2969"/><text fill="#000000" font-family="sans-serif" font-size="14" lengthAdjust="spacing" textLength="40.9473" x="13" y="178.292">tablet</text></g><!--class Perfil--><g id="elem_Perfil"><rect codeLine="8" fill="#F1F1F1" height="50.5938" id="Perfil" rx="2.5" ry="2.5" style="stroke:#181818;stroke-width:0.5;" width="53.002" x="125" y="135"/><text fill="#000000" font-family="sans-serif" font-size="14" lengthAdjust="spacing" textLength="35.5195" x="133.7412" y="152.9951">Perfil</text><line style="stroke:#181818;stroke-width:0.5;" x1="126" x2="177.002" y1="161.2969" y2="161.2969"/><text fill="#000000" font-family="sans-serif" font-size="14" lengthAdjust="spacing" textLength="41.002" x="131" y="178.292">ruben</text></g><!--class Usuario--><g id="elem_Usuario"><rect codeLine="12" fill="#F1F1F1" height="50.5938" id="Usuario" rx="2.5" ry="2.5" style="stroke:#181818;stroke-width:0.5;" width="59.2041" x="196" y="7"/><text fill="#000000" font-family="sans-serif" font-size="14" lengthAdjust="spacing" textLength="53.2041" x="199" y="24.9951">Usuario</text><line style="stroke:#181818;stroke-width:0.5;" x1="197" x2="254.2041" y1="33.2969" y2="33.2969"/><text fill="#000000" font-family="sans-serif" font-size="14" lengthAdjust="spacing" textLength="43.8867" x="202" y="50.292">Ruseti</text></g><!--class Dispositivo2--><g id="elem_Dispositivo2"><rect codeLine="16" fill="#F1F1F1" height="50.5938" id="Dispositivo2" rx="2.5" ry="2.5" style="stroke:#181818;stroke-width:0.5;" width="91.7363" x="567.5" y="391"/><text fill="#000000" font-family="sans-serif" font-size="14" lengthAdjust="spacing" textLength="85.7363" x="570.5" y="408.9951">Dispositivo2</text><line style="stroke:#181818;stroke-width:0.5;" x1="568.5" x2="658.2363" y1="417.2969" y2="417.2969"/><text fill="#000000" font-family="sans-serif" font-size="14" lengthAdjust="spacing" textLength="74.9355" x="573.5" y="434.292">Ordenador</text></g><!--class CreadorDeContenido--><g id="elem_CreadorDeContenido"><rect codeLine="20" fill="#F1F1F1" height="50.5938" id="CreadorDeContenido" rx="2.5" ry="2.5" style="stroke:#181818;stroke-width:0.5;" width="152.8564" x="633" y="263"/><text fill="#000000" font-family="sans-serif" font-size="14" lengthAdjust="spacing" textLength="146.8564" x="636" y="280.9951">CreadorDeContenido</text><line style="stroke:#181818;stroke-width:0.5;" x1="634" x2="784.8564" y1="289.2969" y2="289.2969"/><text fill="#000000" font-family="sans-serif" font-size="14" lengthAdjust="spacing" textLength="25.4844" x="639" y="306.292">Ibai</text></g><!--class Perfil2--><g id="elem_Perfil2"><rect codeLine="24" fill="#F1F1F1" height="50.5938" id="Perfil2" rx="2.5" ry="2.5" style="stroke:#181818;stroke-width:0.5;" width="50.4268" x="694.5" y="391"/><text fill="#000000" font-family="sans-serif" font-size="14" lengthAdjust="spacing" textLength="44.4268" x="697.5" y="408.9951">Perfil2</text><line style="stroke:#181818;stroke-width:0.5;" x1="695.5" x2="743.9268" y1="417.2969" y2="417.2969"/><text fill="#000000" font-family="sans-serif" font-size="14" lengthAdjust="spacing" textLength="25.4844" x="700.5" y="434.292">Ibai</text></g><!--class Condiciones--><g id="elem_Condiciones"><rect codeLine="28" fill="#F1F1F1" height="50.5938" id="Condiciones" rx="2.5" ry="2.5" style="stroke:#181818;stroke-width:0.5;" width="173.7656" x="213.5" y="135"/><text fill="#000000" font-family="sans-serif" font-size="14" lengthAdjust="spacing" textLength="84.9229" x="257.9214" y="152.9951">Condiciones</text><line style="stroke:#181818;stroke-width:0.5;" x1="214.5" x2="386.2656" y1="161.2969" y2="161.2969"/><text fill="#000000" font-family="sans-serif" font-size="14" lengthAdjust="spacing" textLength="161.7656" x="219.5" y="178.292">Politica de Condiciones</text></g><!--class Condiciones2--><g id="elem_Condiciones2"><rect codeLine="32" fill="#F1F1F1" height="50.5938" id="Condiciones2" rx="2.5" ry="2.5" style="stroke:#181818;stroke-width:0.5;" width="223.9277" x="779.5" y="391"/><text fill="#000000" font-family="sans-serif" font-size="14" lengthAdjust="spacing" textLength="93.8301" x="844.5488" y="408.9951">Condiciones2</text><line style="stroke:#181818;stroke-width:0.5;" x1="780.5" x2="1002.4277" y1="417.2969" y2="417.2969"/><text fill="#000000" font-family="sans-serif" font-size="14" lengthAdjust="spacing" textLength="211.9277" x="785.5" y="434.292">Gestion de Derechos Digitales</text></g><!--class Categor?a--><g id="elem_Categor&#237;a"><rect codeLine="36" fill="#F1F1F1" height="50.5938" id="Categor&#237;a" rx="2.5" ry="2.5" style="stroke:#181818;stroke-width:0.5;" width="96.3623" x="431.5" y="391"/><text fill="#000000" font-family="sans-serif" font-size="14" lengthAdjust="spacing" textLength="68.1338" x="445.6143" y="408.9951">Categor&#237;a</text><line style="stroke:#181818;stroke-width:0.5;" x1="432.5" x2="526.8623" y1="417.2969" y2="417.2969"/><text fill="#000000" font-family="sans-serif" font-size="14" lengthAdjust="spacing" textLength="84.3623" x="437.5" y="434.292">videojuegos</text></g><!--class Subscripci?n--><g id="elem_Subscripci&#243;n"><rect codeLine="40" fill="#F1F1F1" height="50.5938" id="Subscripci&#243;n" rx="2.5" ry="2.5" style="stroke:#181818;stroke-width:0.5;" width="95.1953" x="423" y="135"/><text fill="#000000" font-family="sans-serif" font-size="14" lengthAdjust="spacing" textLength="89.1953" x="426" y="152.9951">Subscripci&#243;n</text><line style="stroke:#181818;stroke-width:0.5;" x1="424" x2="517.1953" y1="161.2969" y2="161.2969"/><text fill="#000000" font-family="sans-serif" font-size="14" lengthAdjust="spacing" textLength="21.0615" x="429" y="178.292">vip</text></g><!--class Recomendaci?n--><g id="elem_Recomendaci&#243;n"><rect codeLine="44" fill="#F1F1F1" height="50.5938" id="Recomendaci&#243;n" rx="2.5" ry="2.5" style="stroke:#181818;stroke-width:0.5;" width="234.9814" x="353" y="263"/><text fill="#000000" font-family="sans-serif" font-size="14" lengthAdjust="spacing" textLength="112.2188" x="414.3813" y="280.9951">Recomendaci&#243;n</text><line style="stroke:#181818;stroke-width:0.5;" x1="354" x2="586.9814" y1="289.2969" y2="289.2969"/><text fill="#000000" font-family="sans-serif" font-size="14" lengthAdjust="spacing" textLength="222.9814" x="359" y="306.292">Recomendaci&#243;n de videojuegos</text></g><!--class Contenido--><g id="elem_Contenido"><rect codeLine="48" fill="#F1F1F1" height="50.5938" id="Contenido" rx="2.5" ry="2.5" style="stroke:#181818;stroke-width:0.5;" width="77.5313" x="440.5" y="519"/><text fill="#000000" font-family="sans-serif" font-size="14" lengthAdjust="spacing" textLength="71.5313" x="443.5" y="536.9951">Contenido</text><line style="stroke:#181818;stroke-width:0.5;" x1="441.5" x2="517.0313" y1="545.2969" y2="545.2969"/><text fill="#000000" font-family="sans-serif" font-size="14" lengthAdjust="spacing" textLength="24.165" x="446.5" y="562.292">LoL</text></g><!--link Usuario to Dispositivo--><g id="link_Usuario_Dispositivo"><path codeLine="52" d="M195.87,54.59 C164.78,76.73 120.8183,108.0209 87.9683,131.4009 " fill="none" id="Usuario-to-Dispositivo" style="stroke:#181818;stroke-width:1.0;"/><polygon fill="#181818" points="83.08,134.88,92.7319,132.9202,87.1536,131.9807,88.0931,126.4024,83.08,134.88" style="stroke:#181818;stroke-width:1.0;"/><text fill="#000000" font-family="sans-serif" font-size="13" lengthAdjust="spacing" textLength="22.9785" x="149.5" y="101.0669">usa</text></g><!--link Usuario to Perfil--><g id="link_Usuario_Perfil"><path codeLine="53" d="M211.06,58.09 C198.02,80.29 181.9674,107.6156 168.9474,129.7956 " fill="none" id="Usuario-to-Perfil" style="stroke:#181818;stroke-width:1.0;"/><polygon fill="#181818" points="165.91,134.97,173.9157,129.2334,168.4412,130.658,167.0166,125.1835,165.91,134.97" style="stroke:#181818;stroke-width:1.0;"/><text fill="#000000" font-family="sans-serif" font-size="13" lengthAdjust="spacing" textLength="32.9443" x="194.5" y="101.0669">tiene</text></g><!--link Usuario to Condiciones--><g id="link_Usuario_Condiciones"><path codeLine="54" d="M240.14,58.09 C253.35,80.29 269.6198,107.635 282.8298,129.815 " fill="none" id="Usuario-to-Condiciones" style="stroke:#181818;stroke-width:1.0;"/><polygon fill="#181818" points="285.9,134.97,284.7313,125.1907,283.3415,130.6742,277.858,129.2843,285.9,134.97" style="stroke:#181818;stroke-width:1.0;"/><text fill="#000000" font-family="sans-serif" font-size="13" lengthAdjust="spacing" textLength="44.4272" x="268.5" y="101.0669">acepta</text></g><!--link Usuario to Subscripci?n--><g id="link_Usuario_Subscripci&#243;n"><path codeLine="55" d="M255.05,48.7 C296.67,70.1 367.6745,106.6155 417.4045,132.1955 " fill="none" id="Usuario-to-Subscripci&#243;n" style="stroke:#181818;stroke-width:1.0;"/><polygon fill="#181818" points="422.74,134.94,416.5664,127.2663,418.2937,132.6529,412.9071,134.3803,422.74,134.94" style="stroke:#181818;stroke-width:1.0;"/><text fill="#000000" font-family="sans-serif" font-size="13" lengthAdjust="spacing" textLength="32.9443" x="364.5" y="101.0669">tiene</text></g><!--link Subscripci?n to Recomendaci?n--><g id="link_Subscripci&#243;n_Recomendaci&#243;n"><path codeLine="57" d="M470.5,186.09 C470.5,208.29 470.5,234.79 470.5,256.97 " fill="none" id="Subscripci&#243;n-to-Recomendaci&#243;n" style="stroke:#181818;stroke-width:1.0;"/><polygon fill="#181818" points="470.5,262.97,474.5,253.97,470.5,257.97,466.5,253.97,470.5,262.97" style="stroke:#181818;stroke-width:1.0;"/><text fill="#000000" font-family="sans-serif" font-size="13" lengthAdjust="spacing" textLength="62.8418" x="471.5" y="229.0669">establece</text></g><!--link Recomendaci?n to Categor?a--><g id="link_Recomendaci&#243;n_Categor&#237;a"><path codeLine="58" d="M467.66,314.05 C466.51,327.87 465.81,345.44 467.5,361 C468.58,370.92 469.3575,375.8391 471.5475,385.1591 " fill="none" id="Recomendaci&#243;n-to-Categor&#237;a" style="stroke:#181818;stroke-width:1.0;"/><polygon fill="#181818" points="472.92,391,474.7552,381.3236,471.7763,386.1326,466.9673,383.1536,472.92,391" style="stroke:#181818;stroke-width:1.0;"/><text fill="#000000" font-family="sans-serif" font-size="13" lengthAdjust="spacing" textLength="36.3213" x="468.5" y="357.0669">sobre</text></g><!--link Categor?a to Contenido--><g id="link_Categor&#237;a_Contenido"><path codeLine="59" d="M479.5,442.09 C479.5,464.29 479.5,490.79 479.5,512.97 " fill="none" id="Categor&#237;a-to-Contenido" style="stroke:#181818;stroke-width:1.0;"/><polygon fill="#181818" points="479.5,518.97,483.5,509.97,479.5,513.97,475.5,509.97,479.5,518.97" style="stroke:#181818;stroke-width:1.0;"/><text fill="#000000" font-family="sans-serif" font-size="13" lengthAdjust="spacing" textLength="66.0728" x="480.5" y="485.0669">pertenece</text></g><!--link CreadorDeContenido to Categor?a--><g id="link_CreadorDeContenido_Categor&#237;a"><path codeLine="61" d="M664.61,314.09 C624.08,336.29 570.0322,365.9074 529.5422,388.0874 " fill="none" id="CreadorDeContenido-to-Categor&#237;a" style="stroke:#181818;stroke-width:1.0;"/><polygon fill="#181818" points="524.28,390.97,534.095,390.1543,528.6652,388.5679,530.2516,383.138,524.28,390.97" style="stroke:#181818;stroke-width:1.0;"/><text fill="#000000" font-family="sans-serif" font-size="13" lengthAdjust="spacing" textLength="28.4565" x="609.5" y="357.0669">crea</text></g><!--link CreadorDeContenido to Perfil2--><g id="link_CreadorDeContenido_Perfil2"><path codeLine="62" d="M711.45,314.09 C713.21,336.29 715.3154,362.8088 717.0754,384.9888 " fill="none" id="CreadorDeContenido-to-Perfil2" style="stroke:#181818;stroke-width:1.0;"/><polygon fill="#181818" points="717.55,390.97,720.8255,381.6818,717.1545,385.9857,712.8506,382.3146,717.55,390.97" style="stroke:#181818;stroke-width:1.0;"/><text fill="#000000" font-family="sans-serif" font-size="13" lengthAdjust="spacing" textLength="32.9443" x="716.5" y="357.0669">tiene</text></g><!--link CreadorDeContenido to Dispositivo2--><g id="link_CreadorDeContenido_Dispositivo2"><path codeLine="63" d="M690.76,314.09 C673.85,336.29 652.7264,364.0175 635.8264,386.1975 " fill="none" id="CreadorDeContenido-to-Dispositivo2" style="stroke:#181818;stroke-width:1.0;"/><polygon fill="#181818" points="632.19,390.97,640.8262,386.2355,635.2203,386.9929,634.4629,381.387,632.19,390.97" style="stroke:#181818;stroke-width:1.0;"/><text fill="#000000" font-family="sans-serif" font-size="13" lengthAdjust="spacing" textLength="22.9785" x="668.5" y="357.0669">usa</text></g><!--link CreadorDeContenido to Condiciones2--><g id="link_CreadorDeContenido_Condiciones2"><path codeLine="64" d="M745.02,314.09 C777.09,336.29 819.0862,365.3756 851.1362,387.5556 " fill="none" id="CreadorDeContenido-to-Condiciones2" style="stroke:#181818;stroke-width:1.0;"/><polygon fill="#181818" points="856.07,390.97,850.9456,382.5593,851.9585,388.1247,846.3931,389.1376,856.07,390.97" style="stroke:#181818;stroke-width:1.0;"/><text fill="#000000" font-family="sans-serif" font-size="13" lengthAdjust="spacing" textLength="44.4272" x="812.5" y="357.0669">acepta</text></g><!--SRC=[TL9BQiCm4Dth5Bf0DbbwqKqCfH1eICa1PFardc9BPYG7IkcHkkeHSh5A_c3BTNRslC_CF4r59IIQrd_A1aq1TgAA9KsiQmYXQ-MSpCcrrf6dcvLVGaglYXfUV4_u2VnETGznLy3CoCLrYcbGdJi7JpEsSDttX5SkOLHfUUOS6B6Gus2DXw5oi7ef5AtRxpUGe2f9apLmFNgoTUYdbGmhBh1DmU3t3EV3RnJaOEZAni6lv5MTw9J7rVBzH_MgMyZGVdIXjE2yTONJJAsc-wyPQUqCdw5j0rEg6L-LmWoRncasHtkCq9JyRlUKl5ycEwSIT7ozJ7g2GG8jyykaqcXzgartcYn4Mex4rIgP3Bd6Az8GAwZlEyUPIMSBXbYKnid6dJFPWiDtj18Rz_BFJmVE8-9qIjCc3sZ9wGw9FkgyFAWfmZy0]--></g></svg>