<svg xmlns="http://www.w3.org/2000/svg" xmlns:xlink="http://www.w3.org/1999/xlink" contentStyleType="text/css" height="597px" preserveAspectRatio="none" style="width:374px;height:597px;background:#FFFFFF;" version="1.1" viewBox="0 0 374 597" width="374px" zoomAndPan="magnify"><defs/><g><ellipse cx="138.5" cy="16" fill="#222222" rx="10" ry="10" style="stroke:#222222;stroke-width:1.0;"/><g id="sinRecomendado"><rect fill="#F1F1F1" height="50" rx="12.5" ry="12.5" style="stroke:#181818;stroke-width:0.5;" width="140.7021" x="68" y="103"/><line style="stroke:#181818;stroke-width:0.5;" x1="68" x2="208.7021" y1="129.2969" y2="129.2969"/><text fill="#000000" font-family="sans-serif" font-size="14" lengthAdjust="spacing" textLength="120.7021" x="78" y="120.9951">sinRecomendado</text></g><g id="elem_Turno"><polygon fill="#F1F1F1" points="78.5,230,90.5,242,78.5,254,66.5,242,78.5,230" style="stroke:#181818;stroke-width:0.5;"/></g><g id="recomienda"><rect fill="#F1F1F1" height="50" rx="12.5" ry="12.5" style="stroke:#181818;stroke-width:0.5;" width="103.1113" x="7" y="331"/><line style="stroke:#181818;stroke-width:0.5;" x1="7" x2="110.1113" y1="357.2969" y2="357.2969"/><text fill="#000000" font-family="sans-serif" font-size="14" lengthAdjust="spacing" textLength="83.1113" x="17" y="348.9951">recomienda</text></g><g id="noHayDatos"><rect fill="#F1F1F1" height="50" rx="12.5" ry="12.5" style="stroke:#181818;stroke-width:0.5;" width="105.5381" x="145.5" y="331"/><line style="stroke:#181818;stroke-width:0.5;" x1="145.5" x2="251.0381" y1="357.2969" y2="357.2969"/><text fill="#000000" font-family="sans-serif" font-size="14" lengthAdjust="spacing" textLength="85.5381" x="155.5" y="348.9951">noHayDatos</text></g><g id="categoria"><rect fill="#F1F1F1" height="50" rx="12.5" ry="12.5" style="stroke:#181818;stroke-width:0.5;" width="86.0557" x="15.5" y="458"/><line style="stroke:#181818;stroke-width:0.5;" x1="15.5" x2="101.5557" y1="484.2969" y2="484.2969"/><text fill="#000000" font-family="sans-serif" font-size="14" lengthAdjust="spacing" textLength="66.0557" x="25.5" y="475.9951">categoria</text></g><ellipse cx="58.5" cy="580" fill="none" rx="11" ry="11" style="stroke:#222222;stroke-width:1.0;"/><ellipse cx="58.5" cy="580" fill="#222222" rx="6" ry="6" style="stroke:#222222;stroke-width:1.0;"/><!--link *start* to sinRecomendado--><g id="link_*start*_sinRecomendado"><path d="M138.5,26 C138.5,42.63 138.5,72.66 138.5,96.87 " fill="none" id="*start*-to-sinRecomendado" style="stroke:#181818;stroke-width:1.0;"/><polygon fill="#181818" points="138.5,102.87,142.5,93.87,138.5,97.87,134.5,93.87,138.5,102.87" style="stroke:#181818;stroke-width:1.0;"/><text fill="#000000" font-family="sans-serif" font-size="13" lengthAdjust="spacing" textLength="227.0874" x="139.5" y="69.0669">usuario registrado sin subscripcion</text></g><!--link sinRecomendado to Turno--><g id="link_sinRecomendado_Turno"><path d="M99.89,153.09 C90.1,161.28 80.86,171.35 75.5,183 C68,199.31 70.718,215.2148 74.088,226.9048 " fill="none" id="sinRecomendado-to-Turno" style="stroke:#181818;stroke-width:1.0;"/><polygon fill="#181818" points="75.75,232.67,77.1005,222.9142,74.365,227.8657,69.4135,225.1302,75.75,232.67" style="stroke:#181818;stroke-width:1.0;"/><text fill="#000000" font-family="sans-serif" font-size="13" lengthAdjust="spacing" textLength="95.8115" x="76.5" y="196.0669">si se subscribe</text></g><!--link Turno to recomienda--><g id="link_Turno_recomienda"><path d="M76.79,252.55 C73.73,269.69 68.2744,300.2534 63.9044,324.7334 " fill="none" id="Turno-to-recomienda" style="stroke:#181818;stroke-width:1.0;"/><polygon fill="#181818" points="62.85,330.64,68.3694,322.483,63.7287,325.7178,60.4939,321.0771,62.85,330.64" style="stroke:#181818;stroke-width:1.0;"/><text fill="#000000" font-family="sans-serif" font-size="13" lengthAdjust="spacing" textLength="10.3848" x="72.5" y="297.0669">si</text></g><!--link Turno to noHayDatos--><g id="link_Turno_noHayDatos"><path d="M84.29,248.4 C99.97,263.04 139.6441,300.0657 168.2241,326.7457 " fill="none" id="Turno-to-noHayDatos" style="stroke:#181818;stroke-width:1.0;"/><polygon fill="#181818" points="172.61,330.84,168.7607,321.7745,168.9551,327.428,163.3016,327.6224,172.61,330.84" style="stroke:#181818;stroke-width:1.0;"/><text fill="#000000" font-family="sans-serif" font-size="13" lengthAdjust="spacing" textLength="16.1929" x="139.5" y="297.0669">no</text></g><!--link noHayDatos to sinRecomendado--><g id="link_noHayDatos_sinRecomendado"><path d="M199.02,330.74 C198.95,296.6 195.89,232.96 176.5,183 C172.39,172.42 169.3512,166.7714 162.7812,157.9014 " fill="none" id="noHayDatos-to-sinRecomendado" style="stroke:#181818;stroke-width:1.0;"/><polygon fill="#181818" points="159.21,153.08,161.3526,162.693,162.186,157.0979,167.7811,157.9313,159.21,153.08" style="stroke:#181818;stroke-width:1.0;"/></g><!--link recomienda to categoria--><g id="link_recomienda_categoria"><path d="M58.5,381.1 C58.5,403.24 58.5,429.86 58.5,451.97 " fill="none" id="recomienda-to-categoria" style="stroke:#181818;stroke-width:1.0;"/><polygon fill="#181818" points="58.5,457.97,62.5,448.97,58.5,452.97,54.5,448.97,58.5,457.97" style="stroke:#181818;stroke-width:1.0;"/><text fill="#000000" font-family="sans-serif" font-size="13" lengthAdjust="spacing" textLength="36.3213" x="59.5" y="424.0669">sobre</text></g><!--link categoria to *end*--><g id="link_categoria_*end*"><path d="M58.5,508.46 C58.5,528.04 58.5,548.49 58.5,562.8 " fill="none" id="categoria-to-*end*" style="stroke:#181818;stroke-width:1.0;"/><polygon fill="#181818" points="58.5,568.8,62.5,559.8,58.5,563.8,54.5,559.8,58.5,568.8" style="stroke:#181818;stroke-width:1.0;"/></g><!--SRC=[NOux3iCm28PtJi4SAHU8eamTEbVTeWoEWrA6cWhieRUlaHKrBHlV_u2vMx3l9pHEDuhofBI5JN0eLeAoeDBEbjLPjQ2LrQBoAx8a0B0SCk6zQ18Sn_WGZZHDqEQlqgyqvs2CHaVNIj2m6zG3x0btdOGar_2-X2o6GqLmsglyUmfEBPwDzSbTbBrJLYM4Bt5zxfOF]--></g></svg>